<svg viewBox="0 0 700 130" xmlns="http://www.w3.org/2000/svg" style="width: 100%; height: auto;">
  <g fill="none" stroke="#000000" stroke-width="3.5" stroke-linecap="round" stroke-linejoin="round">
    <!-- Letter C -->
    <g transform="translate(25, 0)">
      <path d="M 67.9,46.4 A 28.0,28.0 0 1,0 67.9,78.6" />
          <path d="M 74.5,41.9 A 36.0,36.0 0 1,0 74.5,83.1" />
          <path d="M 81.0,37.3 A 44.0,44.0 0 1,0 81.0,87.7" />
    </g>
    <!-- Letter A -->
    <g transform="translate(120, 0)">
      <path d="M 15,110 L 45,15 L 75,110" />
          <path d="M 23,110 L 45,40.3 L 67,110" />
          <path d="M 31,110 L 45,65.6 L 59,110" />
          <path d="M 26,74 L 64,74" />
          <path d="M 28,82 L 62,82" />
          <path d="M 30,90 L 60,90" />
    </g>
    <!-- Letter N -->
    <g transform="translate(215, 0)">
      <path d="M 15,110 L 15,15" />
          <path d="M 23,110 L 23,15" />
          <path d="M 31,110 L 31,15" />
          <path d="M 59,110 L 59,15" />
          <path d="M 67,110 L 67,15" />
          <path d="M 75,110 L 75,15" />
          <path d="M 15,15 L 59,110" />
          <path d="M 23,15 L 67,110" />
          <path d="M 31,15 L 75,110" />
    </g>
    <!-- Letter D -->
    <g transform="translate(310, 0)">
      <path d="M 15,110 L 15,15" />
          <path d="M 23,110 L 23,15" />
          <path d="M 31,110 L 31,15" />
          <path d="M 31,45 L 40,45 A 17.5,17.5 0 0,1 40,80 L 31,80" />
          <path d="M 23,37 L 40,37 A 25.5,25.5 0 0,1 40,88 L 23,88" />
          <path d="M 15,29 L 40,29 A 33.5,33.5 0 0,1 40,96 L 15,96" />
    </g>
    <!-- Letter O -->
    <g transform="translate(405, 0)">
      <circle cx="45" cy="62.5" r="47.5" />
          <circle cx="45" cy="62.5" r="39.5" />
          <circle cx="45" cy="62.5" r="31.5" />
    </g>
    <!-- Letter U -->
    <g transform="translate(500, 0)">
      <path d="M 27.5,15 L 27.5,62.5 A 17.5,17.5 0 0,0 62.5,62.5 L 62.5,15" />
          <path d="M 19.5,15 L 19.5,62.5 A 25.5,25.5 0 0,0 70.5,62.5 L 70.5,15" />
          <path d="M 11.5,15 L 11.5,62.5 A 33.5,33.5 0 0,0 78.5,62.5 L 78.5,15" />
    </g>
    <!-- Letter R -->
    <g transform="translate(595, 0)">
      <path d="M 15,110 L 15,15" />
          <path d="M 23,110 L 23,15" />
          <path d="M 31,110 L 31,15" />
          <path d="M 31,27 L 40,27 A 11.5,11.5 0 0,1 40,50 L 31,50" />
          <path d="M 23,19 L 40,19 A 19.5,19.5 0 0,1 40,58 L 23,58" />
          <path d="M 15,11 L 40,11 A 27.5,27.5 0 0,1 40,66 L 15,66" />
          <path d="M 40,66 L 75,110" />
          <path d="M 25,58 L 67,110" />
          <path d="M 10,50 L 59,110" />
    </g>
  </g>
</svg>