<?xml version="1.0" encoding="UTF-8"?>
<svg id="Layer_1" xmlns="http://www.w3.org/2000/svg" version="1.1" viewBox="0 0 510.24 147.36">
  <!-- Generator: Adobe Illustrator 29.5.0, SVG Export Plug-In . SVG Version: 2.1.0 Build 137)  -->
  <path d="M72.2,42.32c.84.86,1.66,1.05,1.02,2.53-.15.35-5.45,4.92-5.85,4.92-2.25-1.54-4.23-3.54-6.62-4.9-11.72-6.67-27.84-4.79-36.79,5.58-18.89,21.88,6.07,51.05,32,41.5,1.73-.64,7.47-3.8,8.62-5.03,1.43-1.53-.97-3.33-1.93-3.12-.42.09-2.42,1.92-3.34,2.39-19.15,9.77-41.44-2.11-37.14-25.09,3.1-16.61,29.62-21.06,41.13-10.17,1.77,1.67,1.49,3.85-.67,3.63-.24-.02-2.48-2.65-3.48-3.3-16.24-10.6-40.5,1.93-33.87,22.31,3.65,11.22,17.37,15.63,28.07,12.4,3.81-1.15,6.71-3.8,9.96-5.87,1.29,1.79,4.18,3.59,5.32,5.28.81,1.2-3.69,4.71-4.68,5.42-14.92,10.66-38.69,5.7-46.36-11.47-12.52-28.01,20.14-51.54,44.82-36.59,2.78,1.68,4.96,5.69,7.16,1.5-.2-1.25-7.04-5.68-8.48-6.41C35.51,25.01,3.08,48.19,12.25,77.01c6.59,20.7,34.39,29.94,52.24,17.71,1.38-.94,6.49-6.23,7.2-6.23.67,0,1.76.94,1.64,1.62-.37,2.08-9.48,8.29-11.78,9.33C30.5,113.47-4.83,81.96,12.3,50.79c11.7-21.3,42.74-25.95,59.9-8.46Z"/>
  <path d="M470.44,91.86c1.8,2.09,3.74,4.1,5.5,6.25,1.24,1.52,1.36,3.37,4.73,2.28,2.12-.68-.02-1.51-.15-1.7-4.88-6.7-10.19-13.07-15.15-19.71l-1.12-.77c-.38-.07-.64.25-.75.25h-15.35c-.05,0-.72-.67-.72-.72v-34.45c0-.05.67-.72.72-.72h13.91c3.02,0,9.15,2.32,11.51,4.31,5.55,4.67,5.51,16.13.72,21.29-2.08,2.24-8.79,5.02-11.75,5.02h-8.39v-2.87h9.35c2.17,0,7.6-2.61,9.13-4.28,3.54-3.85,3.52-12.46,0-16.31-1.35-1.47-7.26-4.28-9.13-4.28h-12.47c-.05,0-.72.67-.72.72v29.18c0,.05.67.72.72.72h10.55c4.26,0,11.24-2.34,14.59-5.06,7.57-6.17,7.21-20.66-.68-26.51-8.33-6.18-18.62-3.43-28.05-4.79v-7.66c13.34-1.55,31.69-.78,39.63,11.9,4.98,7.96,4.81,20.63-.38,28.46-2.29,3.45-5.85,5.65-9.03,8.21l16.54,20.81.24,1.43c-1.51.2-2.8-.23-3.84-1.32l-16.8-21.89c-.13-.79.23-.6.61-.86,3.41-2.32,6.34-3.09,9.21-6.58,5.46-6.65,5.57-18.56,1.62-25.94-4.86-9.1-15.97-11.59-25.57-12.29-1.89-.14-6.48-.32-8.15,0s-1.19,1.56-1.2,2.87c6.11.3,13.16.24,19.08,1.78,20.6,5.36,19.86,35.35-1.33,38.89l18.7,24.16c.12.53-.32.97-.79,1.11-.85.27-7.95.26-9.04.07-1.02-.18-.88-.7-1.19-.95l-10.07-12.92c-.92-1.01-1.14-1.32-1.92-2.39-2.46-4.32-9.53-3.27-13.55-2.15-1.44,3.24-3.14-.25-2.2-1.85.44-.74,14.04-.99,14.66-.59l7.8,9.85Z"/>
  <path d="M463.72,86.6c-.73-.16-2.39-2.39-2.64-2.39h-10.07c-.05,0-.72.67-.72.72v17.94h-7.91c-.08,0-1.2-1.11-1.2-1.2V33.97c-.68-.08-3.36-.13-3.36.72v67.46c0,.9-2.4.9-2.4,0V33.25c0-.27-.35-1.67.72-1.67h7.19c.05,0,.72.67.72.72v67.46c0,.98,3.36.98,3.36,0v-17.94l15.35-.24c2.43,3.45,5.88,6.47,7.67,10.29-.41-.48-1.3-.99-1.91-1.69-2.05-2.36-3.73-5.59-6.08-7.81-.67-.23-12.58-.24-13.28-.01-1.11.36-.77,1.87-.78,2.8,2.58-2.47,7.31-2.31,10.78-1.91s3.05,1.3,4.56,3.35Z"/>
  <path d="M173.12,64.11c8.4,11.7,16.16,23.88,24.42,35.68,1.74,1.39,8.25.68,10.59.2V32.29c0-.92,2.54-1.38,2.9,1.41-1.33,21.61,1.69,45.17,0,66.55-.07.92-.28,1.73-.5,2.61h-13.67c-.81,0-2.87-3.27-3.51-4.15-6.63-9.11-12.76-18.86-18.79-28.38l-6.84-9.85c-.4.25-.84.26-1.31.04.59-.04.8.08.48.44v39.42l-.48.33c.6-.8.94.97.67,1.37-.31.46-11.81,1.4-7.86-2.09.5-.82.72-.43.96.48l.33-.39c1.29.94,3.02.51,4.46.15-.75.21-.82.02-.23-.58l-.25-45.73.47-.33c.29-.89.59-.78,1.11-.09l7.04,10.61Z"/>
  <path d="M403.78,93.3c9.78-3.9,12.81-8.63,13.45-19.36.81-13.58-.7-27.92.05-41.58.49-1.46,6.98-.79,8.56-.31v47.6c0,2.49-2.88,9.23-4.3,11.49-4.05,6.43-9.48,9.26-16.8,10.75-9.12.9-18.89,1.07-26.71-4.35-1.31-.9-3.66-2.66-.88-3.09,11.11,7.97,27.69,8.48,38.62-.22,3.87-4.07,7.67-11.81,7.67-17.46v-42.1c0-1-3.84-1-3.84,0v43.06c0,4.64-3.71,11.58-7.67,14.11-7.96,5.74-22.08,6.17-30.12.48-5.06-3.58-2.44-5.53,1.3-1.63l1.49.66c.67.34,1.22.63,1.92.96,5.24,2.8,11.64,2.29,17.26.96Z"/>
  <path d="M118.93,42.58l-3.28-8.1c-4.7-2.52,1.03-3.89,2.28-.16.27,1.43.77,2.59,1.49,3.48,8.64,21.01,17.1,42.1,25.66,63.15l.24,1.92h-8.87l-26.2-63.57h-1.79c-1.12,4-3.3,7.62-4.86,11.42-.51.7-1.73-.11-1.79-.61-.06-.45,2.64-7.44,3.12-8.55.29-.68.74-1.67,1.12-2.43.19-3.14,5.76-3.44,6.62-.44,2.53,6.92,5.26,13.81,8.2,20.64,5.46,12.73,10.3,25.78,15.93,38.42.31.7.24,1.81.47,2.15.44.64,3.89,1.04,4.19-.17l-22.38-55.61c-.28-.45-.01-1.21-.13-1.53Z"/>
  <path d="M406.66,85.16c1.6,1.72-2.89,3.16-4.42,3.58-5.39,1.48-12.23,1.13-16.58-2.66l-.09.99c.08.49-.24.49-.96,0-1.36-1.41-4.8-6.67-4.8-8.37v-44.02c0-1-3.84-1-3.84,0v40.67c0,1.04.78,4.85,1.1,6.08,1.12,4.29,3.83,7.61,7.53,9.95-.22-.11-.88,0-1.39-.27-1.39-.7-2.4-2.73-3.88-1.41.7.76,1.42,1.45,2.24,2.07,7.68,5.86,22.4,5.18,30.37.08-6.5,6.06-19.84,6.06-27.58,2.4-6.47-3.06-11.26-11.35-11.26-18.43v-43.78c.47.16,1.04-.48,1.2-.48h7.19c.53,0,.69,1.17.74,1.65,1.52,12.91-1.09,28.85-.04,42.14,1.06,13.44,14.32,14.62,24.47,9.79Z"/>
  <path d="M192.78,74.64c-.67-.69-3.41-4.9-3.16-5.36.07-.12,1.27-1.15,1.57-.84,1.44,3.31,3.25,5.13,5.43,5.48-.99-.01-1.36-.49-.48-.9v-40.15l.48-.33c1.7-.82,5.88-.79,7.67,0,.42,19.68.42,40.91,0,60.76-1.54.79-5.09.87-6.68-.24-5.69-8.52-11.42-16.99-17.18-25.42.89-2.16,2.55-1.06,4.99,3.32,4.39,7.13,9.08,13.94,14.08,20.43,1.4.19,2.53-.03,2.42-1.65v-54.11c.1-2.13-1.77-1.67-3.38-1.65v47.6c0,.11-.45.72-.96.48-.89-.41-4.12-6.14-4.79-7.42Z"/>
  <path d="M344.01,37.97l-.88.64c-2.35-1.38-3.34-1.43-2.96-.16l-1.57.31c-20.12-9.01-45.51,4.86-46.42,27.46-1.1,27.16,29.68,42.51,51.6,27.72h1.66c1.33,1.36-2.23,3.3-3.51,3.89-9.92,4.56-19.68,6.32-30.05,2.05l-.49.76c-19.64-6.64-28.28-30.54-18.96-48.82,9.41-18.47,34.19-25.66,51.57-13.85Z"/>
  <path d="M120.85,59.33c-.89-2.09-2.24-4.43-3.19-6.62-.9-2.07-5.3-14.87-6-15.31-.29-.18-4.41-.19-4.67-.04-.5.29-.08,2.27-.05,2.83l-.95-.49v3.35s-.96-1.43-.96-1.43c-.06,2.29-1.8,3.81-.97,6.22-1.28-.96-.9.4-1.91,1.2l1.44,1.67c-2.82,6.88-5.28,13.99-8.06,20.9-3.74,9.28-7.48,18.59-11.53,27.75-.32,1.15,2.43,1.29,3.29.88,1.09-.53,6.08-14.33,7.67-16.99,8.74-.38,17.61-.35,26.6.1.89.66,1.61.79,2.17.38,3.07,5.35,4.46,12.22,7.47,17.68.54,1.63-1.39,1.87-2.48,1.02-1.72-1.35-5.49-14.62-7.21-17.31-.73-.35-1.51-.4-2.31-.46-5.24-.38-15.06-.52-20.19,0-.59.06-1.06-.02-1.65.27-1.39.66-5.84,14.12-7,16.46-.19.33-1.26,1.48-1.39,1.48h-8.15c-.12,0-.9-.73-.65-1.12l26.54-64.92c.94-.82,4.97-.94,5.74.51l8.41,21.99Z"/>
  <path d="M265.67,37.32l-.73.75-7.76-3.05-.14.87-12.69-1.93c-6.68.62-14.63-.77-21.14,0-.48.06-1.65.22-1.65.74v67.46c0,.95-2.88.95-2.88,0V32.06c.88-.22,1.69-.43,2.61-.5,7.18-.56,18.19-.4,25.46,0,6.3.35,13.72,2.06,18.92,5.76Z"/>
  <path d="M183.19,56.46c-.26.81-.69,1.2-1.18.51l-6.11-8.9c-.47.14-.92.03-1.35-.22-2.4-3.49-5.85-8.83-8.43-11.92-.3-.36-1.73-1.95-1.88-1.95h-8.63c-.05,0-.72.67-.72.72v66.98c0,.94-2.88,1.74-2.88.48V32.29c0-.05.67-.72.72-.72h13.43c6.11,7.96,11.69,16.38,17.02,24.88Z"/>
  <path d="M256.56,39.23c9.67,2.36,16.5,10.96,18.57,20.46,1.7,7.78.93,14-2.27,21.16-4.57,8.72-13.84,15.94-23.74,15.79-4.99.4-10.74.39-15.83,0-1.75.61-2.23-2.19-1.16-3.23-.08-13.06-.06-26.14.04-39.21,0-.82.14-1.64.29-2.46s.36-1.65.59-2.47c.14-.42.3-.41.48,0,.04,15.37.26,30.42.67,45.16,6.81.97,14.02.51,20.91-1.15,20.03-7.91,24.42-32.89,9.11-47.37-10.21-7.36-24.15-7.9-36.17-6.37-2.65,5.08-2.82-1.61-2.35-1.98,1.8-1.4,27.61-.43,30.85,1.65Z"/>
  <path d="M344.01,37.97c4.35,2.2,8.26,6.59,11.03,10.53,7.35,11.65,7.55,25.34.96,37.32-8.29,13.63-29.84,23.56-44.6,14.83-.3-.18-.7-1.31-1.92-.96,1.3-2.09,3.81.04,5.17.35,9.52,2.2,18.87,1.71,27.5-3.4,1.16-.68,2.6-1.51,3.3-2.69l.54-1.63c17.01-13.83,13.78-41.72-5.03-52.37l-.79-1.51c-2.55-2.01-6.71-3.2-9.88-3.78-1.58-.29-4.47.78-4.5-1.48.46-.4,6.88.6,7.99.87,2.52.61,7.88,2.72,10.23,3.91Z"/>
  <path d="M265.67,37.32c24.59,14.54,21.54,52.33-5.75,62.68-2.53.64-5.01,1.28-7.43,1.91-8.36.77-17.65.65-26.29.48-.11,0-.22-.21-.32-.48-.87-2.26.3-4.14,2.26-1.58,12.83.9,26.75,1.06,38.02-6.08,15.49-12.2,18.59-35.1,4.76-49.85-4.08-4.36-8.82-5.9-13.87-8.52-.69-.36-1.22-1.21-2.4-.96l1.19-1.29,9.84,3.69Z"/>
  <path d="M256.56,39.23c-6.59-1.61-15.53-2.21-22.32-1.93-2.66.11-5.54.92-8.37.5v2.87c1.64-.41,1.32-1.74,3.09-1.95,10.03-1.2,27.72.06,35.28,7.21-2.28-.9-4-2.51-6.31-3.52-6.42-2.79-21.48-3.55-28.49-2.73-.48.06-1.65.22-1.65.74v59.57h20.38c2.15,0,7.69-1.34,9.91-2.08,2.83-.94,5.26-2.72,8.08-3.66-8.29,6.53-26.91,8.17-37.19,6.72-1.24-.17-1.85-1.09-3.09-.98v1.91s26.61,0,26.61,0c.09,0,.92-.71,1.56-.84,1.96-.39,3.85-1.11,5.87-1.08-2.8,1.06-7.86,2.87-10.79,2.87h-23.02c-.05,0-.72-.67-.72-.72V37.56c0-.05.67-.72.72-.72h22.06l8.39,2.39Z"/>
  <path d="M118.93,42.58l-3.82-8.39c-2.31-.08-10.19-.93-11.56.47l-27.53,67.74c-.75.86-2.64.69-2.65-.7l27.81-68.93c.28-.32.59-.77.98-.94,1.1-.49,12.94-.45,14.42-.04s2.21,4.48,2.84,6.01c-1.26.19-.89-.84-1.13-1.48-.82-2.17-.9-3.67-3.66-3.78-.33,1.33.84.82,1.34,1.75,1.41,2.59,2.03,5.67,2.97,8.3Z"/>
  <path d="M98.79,73.2c3.2-7.47,5.59-15.44,9.03-22.81.14-.29,1.26-3.44,2-2.55l11.99,31.1h-24.94c-.34-.77.54-2.87,1.2-2.87h19.42l-7.68-21.05c-1.11-.22-.77.12-1.08.61-2.31,3.65-4.06,10.5-5.63,14.7h8.63c.12,0,.01,1.84.95,2.15-.23.17-.58.72-.71.72h-13.19Z"/>
  <path d="M406.66,85.16c1.84-1.95,3.56-5.22,3.83-7.9l.02-44c.47-2.46,3.34-1.42,3.34-1.21v42.82c0,.96-1.85,7.09-2.4,8.37-4.16,8.4-19.67,10.19-25.9,3.83-1.45-1.26-3.3-4-4.03-5.79-.22-.53-1.41-4.55-1.24-4.73,1.24-1.38,2.17,3.87,2.29,4.17,1.12,2.67,3.45,5.12,6.06,6.39,4.39,2.14,12.95,2.05,17.02-.81.62-.44.66-.78.99-1.14Z"/>
  <path d="M415.77,94.25c-7.46,7.85-23.48,8.11-33.02,3.99-1.15-.5-5.04-3.11-5.58-3.04-1.21.17-.34,1.19.26,1.65,3.58,2.69,9.66,4.66,14.12,5.05s8.84-.4,13.18,0c-17.87,3.66-35.94-3.6-37.42-23.66l-.27-45.49c.22-1.47,2.68-1.38,2.68-.46v45.45c0,19.99,24.39,26.75,40.06,19.87,2.17-.95,3.79-2.57,5.98-3.37Z"/>
  <path d="M266.63,79.42c-1.22,3.3-4.4,6.53-7.19,8.61-3.34,1.58-6.72,3.15-10.42,3.75l-.37-.4c-.76.52-9.76.83-10.48.48-.15-.07-.24-.26-.31-.48-1.47-2.01.77-3,2.86-2.8,4.86.3,9.37.43,13.92-1.5,15.4-6.74,15.82-27.06,4.32-37.8-3.07-1.71-6.18-3.15-9.35-4.31l-.08.4c-4.89-.27-9.88-.49-14.76.04-.58.71-.98.56-1.22-.43.57,1.15.57,2.58,0,4.31h-.48c-.96.07-1.59-4.91-1.36-5.37.84-1.76,13.2-1.14,15.41-.91,19.59,2.09,26.31,19.23,19.52,36.42Z"/>
  <path d="M169.28,51.19c-2.31-3.24-4.49-6.59-6.53-10.03-1.07-1.13-1.28-1.27-2.34-.17v58.9c.4.24.28.43-.24.58-.33-.14-.63-.33-.96-.48l-.54-2.74c-.2-19.57-.27-39.13-.19-58.67.12-1.51,1.32-1.93,3.61-1.26.24.09.76-.14.98.32l36.42,53.74c-.46-.06-.88-.04-1.17-.48-2.51-2.47-14.87-23.89-16.32-23.87-.07,0-1.03.47-1.2.66.87,2,2.43,1.81,2.86,2.2.14.12-.57,1.54.06,2.02l14.1,20.91c1.3,1.08,4.7.21,6.47.48v-60.76h-7.67v41.39c0,.3-.81.74-1.21.74-1.43-.02-3.72-5.71-4.31-5.75-1.87-.14,1.43,5.26,1.68,5.73-3.15-2.83-4.85-7.1-7.19-10.53v-.48c.51-.34.99-.82,1.44-1.44,3.11,2.67,4.63,7.33,7.28,10.2.43.46.42,1.02,1.35.81v-40.91c0-.05.67-.72.72-.72h7.67c.05,0,.72.67.72.72v61.24c0,1.04-6.52,1.22-7.4-.27-9.32-14.06-19.03-27.84-28.09-42.07Z"/>
  <path d="M266.63,79.42c4.49-12.16,2.34-28.42-10.79-33.97-4.68-1.98-17.82-3.62-22.41-1.79-2.81,1.12-.41,1.94-.37,2.1.22.85-.02,2.47,0,3.51.34,14.74-.29,29.54.04,44.29.06.9-1.17.46-1.02,1.39.08.52.92,1.69,1.22,1.69h15.83c3.67,0,12.22-3.54,15.26-5.82,3.7-2.78,5.86-6.3,8.47-9.97-3.61,8.07-13.39,16.27-22.78,16.27h-18.22c-.05,0-.72-.67-.72-.72v-53.11c0-.05.67-.72.72-.72h15.83c2.84,0,8.43,1.95,10.94,3.44,11.04,6.58,14,22.61,8,33.4Z"/>
  <path d="M162.09,37.32c-1.59-.02-3.49-.47-3.38,1.65.19,20.33-.39,40.8.5,61.02.02.45-.69,1.73-.48,1.91h8.15c.18-.52-.48-1.04-.48-1.19v-40.19c0-.15.79-.89,1.19-.72.94.2,6.02,9.04,6.96,10.52l-7.19-9.57v41.39c0,.05-.67.72-.72.72h-7.67c-.05,0-.72-.67-.72-.72V37.56c0-1.29,2.98-.56,3.84-.24Z"/>
  <path d="M169.28,51.19c-3.04-1.94-4.94-8.18-7.17-10.21-.53-.48-.81-.33-1.46-.32v59.33c1.26.42,2.72.59,3.87-.3l-.51-47.3c.34-.29.36-.74.96-.49,1.38.58,6.99,10.24,8.15,12.2-2.19-3.05-4.86-7.15-7.06-9.92-.31-.38.02-.88-1.1-.61v46.65c0,1.22-3.78.68-4.8.24v-60.76c.88-.07,1.42-.12,2.15.49,1.5,1.23,5.58,8.83,6.96,11Z"/>
  <path d="M123.72,83.73c-.25,1.06.15,1.74.46,2.65,1.62,4.72,4.94,10.26,6.24,14.84.26.93-.73.9-1.18.7-1.34-.62-1.14-3.69-1.36-4.2-.02-.06-.62-.17-.88-.77-.8-1.86-4.44-11.91-5.21-12.48-2.45-1.82-20.83-.31-24.92-.49l-.98,1.41-1.89,4.56v-3.82s.95.95.95.95v-3.82c.13-.22-.29-1.02.29-.97l28.04.24c.49.3.31.97.45,1.21Z"/>
  <path d="M258.96,49.28c-3.95-1.63-7.32-3.5-11.73-3.84-2.01-.16-10.44-.33-11.91.11-1.3.39-1.3,1.91-1.3,3.01v44.97c0,.52,1.17.69,1.65.74,5.9.69,13.57-.15,19.45-.98-3.32,1.31-6.16,1.7-9.84,1.91-1.59.09-11.03.29-11.53-.44-.16-15.14-.51-30.35-.21-45.48.03-1.43-.02-2.88,0-4.31h16.06c2.22,0,7.67,2.73,9.35,4.31Z"/>
  <path d="M174.56,47.84l1.43-1.43,6.22,9.73c.17.45.94.26.99.31,1.7,1.96,2.57,3.55,3.84,5.74.09.16-.05.85.26,1.39.53.95,4.41,4.51,2.62,5.55l-4.32-5.51c-2.16-2.73-4.08-5.6-5.75-8.61-1.12-1.17-2.24-2.45-3.36-3.83-.68-.99-1.24-2.36-1.92-3.35Z"/>
  <path d="M254.64,87.08c-2.02.89-3.09,1.6-5.57,1.86-2.7.28-8.45-.51-10.42.13-1,.33-.81,1.43-.79,2.32h10.79c.81,0,4.36-.98,5.41-1.3,1.86-.57,3.47-1.78,5.38-2.05-2.49,1.85-8.79,4.31-11.75,4.31h-9.59c-.58,0-2.22-3.04.1-3.73,2.11-.63,6.88.12,9.48-.1,2.39-.21,4.59-1.18,6.96-1.43Z"/>
  <path d="M355.35,85.16c.32-2.12,1.71-3.96,2.41-5.97,2.6-7.49,2.79-15.66.21-23.2-.99-2.88-2.75-5.29-3.58-8.15,7.98,11.34,8.09,25.59.96,37.32Z"/>
  <path d="M384.6,87.08h.96c6.56,5.7,21.27,4.05,25.9-3.83-.16.38.04.9-.45,1.68-.37.58-2.78,2.85-3.44,3.29-4.74,3.18-12.51,3.59-17.8,2.08-2.24-.64-3.61-1.6-5.17-3.22Z"/>
  <path d="M403.78,93.3c-4.37,1.74-10.21,2.23-14.86.62-1.13-.39-1.92-1.35-2.41-1.57,5.63,1.86,11.44,1.72,17.26.96Z"/>
  <path d="M475.71,101.91c-2.09-1.67-5.16-5.9-6.91-8.17-1.08-1.4-2.37-3.17-3.16-4.74,3.65,4.01,7.43,8.18,10.07,12.92Z"/>
  <path d="M185.59,63.63v.48c-1.8-2.63-3.9-5.4-5.75-8.13-.28-.49-.28-.81,0-.96,2.02,2.78,3.96,5.68,5.75,8.61Z"/>
  <path d="M179.83,55.02v.96c-1.08-1.59-2.26-3.18-3.36-4.78,1.45.91,2.38,2.48,3.36,3.83Z"/>
  <path d="M248.4,33.97c.06-.39-.1-1.32,0-1.43.18-.2,4.75.55,5.26,1.19l-5.27.24Z"/>
  <path d="M347.37,49.45l-1.23.12c-2.51-2.39-5.38-4.38-8.33-6.18.34.34.48.77.45,1.27l-1.65.39c-18.67-7.78-40.91,4.47-37.52,25.89,2.49,15.74,17.15,26.1,32.84,21.49l1.53.55.07.98c3.18-1.2,6.27-2.67,9.07-4.6l1.4.27c-15.72,14.69-43.91,5.89-48.22-15.29-5.74-28.19,26.34-46.17,48.38-28.65,1.18.94,2.88,2.21,3.2,3.75Z"/>
  <path d="M347.37,49.45c10.07,10.46,9.26,32.37-3.36,40.19-4.59,2.84-10.69,6-16.09,6.67-1.58.2-7.54.46-8.13-.93-.68-1.59,4.64-.45,5.75-.48,2.02-.05,6.41-.54,7.92-1.91l1.04-1.36c20.38-7.37,20.83-33.45,4.34-45.37l-.58-1.59c-6.63-4.51-15.72-4.38-23.14-2.28-.44.12-1.18,1.02-1.31.84v-1.91c2.21,1.1,1.54-.35,2.95-.67,1.2-.27,2.12.22,3.29.18l-.49-.95c5.68-.03,10.58-.51,15.96,1.54,3.87,1.47,8.99,5.06,11.85,8.03Z"/>
  <path d="M335.38,48.02c-1.42.88-3.25.79-5.48-.28l.21.76-1.26.8c-36.1-2.7-27.95,48.36,5.99,35.16l1.5.4c.41,2.03-5.35,4.21-6.95,3.35-.06.32-.12.58-.22.59-2.58.37-7.38.53-9.37-.59-.13.25-.23.45-.21.46,3.42.98,9.11.12,12.55-.59.35-.07.64.24.84.61-3.14,1.87-8.61,1.76-12.17,1.38-8.52-.92-17.31-8.56-18.95-16.98-3.85-19.75,15.81-33.63,33.51-25.06Z"/>
  <path d="M335.38,48.02c17.83,7.04,16.44,35.76-2.4,40.67-2.96.77-8.2,1.31-11.28.97-.45-.05-3.92-.83-4.06-.97-.05-.05-.04-1.38,0-1.43.61-.66,2.04.95,2.16.95h9.59c1.21,0,5.73-2.43,6.95-3.35l.42-1.55c12.85-10.2,9.08-27.7-5.81-33.45l-.85-1.35c-1.42-.52-2.62-1.21-4.31-.96l1.67-1.48c2.55.87,5.29,1.71,7.92,1.97Z"/>
</svg>